<svg width="42" height="41" viewBox="0 0 42 41" fill="none" xmlns="http://www.w3.org/2000/svg">
<path d="M30.0649 14.7352C30.0649 16.5951 28.5572 18.1028 26.6973 18.1028C24.8375 18.1028 23.3298 16.5951 23.3298 14.7352C23.3298 12.8754 24.8375 11.3677 26.6973 11.3677C28.5572 11.3677 30.0649 12.8754 30.0649 14.7352Z" fill="#898989" stroke="#898989" stroke-width="2.02054"/>
<path d="M19.778 23.8383L20.5278 23.3384C22.3548 22.1204 24.5015 21.4704 26.6973 21.4704C28.8932 21.4704 31.0398 22.1204 32.8669 23.3384L33.6167 23.8383C34.5535 24.4628 35.1162 25.5143 35.1162 26.6403V28.3178C35.1162 29.1857 34.4127 29.8893 33.5447 29.8893H26.6973H19.8499C18.982 29.8893 18.2784 29.1857 18.2784 28.3178V26.6403C18.2784 25.5143 18.8411 24.4628 19.778 23.8383Z" fill="#898989" stroke="#898989" stroke-width="2.02054" stroke-linecap="round" stroke-linejoin="round"/>
<path d="M18.646 14.7352C18.646 16.5951 17.1383 18.1028 15.2785 18.1028C13.4186 18.1028 11.9109 16.5951 11.9109 14.7352C11.9109 12.8754 13.4186 11.3677 15.2785 11.3677C17.1383 11.3677 18.646 12.8754 18.646 14.7352Z" fill="#898989" stroke="#898989" stroke-width="2.02054"/>
<path d="M8.57759 23.8727L8.97495 23.6495C10.8998 22.568 13.0706 22 15.2784 22C15.2784 22 14.6332 24.2102 14.492 26C14.439 26.6707 14.433 27.5104 14.4427 28.2378C14.4547 29.1367 13.7383 29.8893 12.8394 29.8893H8.43106C7.56313 29.8893 6.85953 29.1857 6.85953 28.3178V26.8087C6.85953 25.5914 7.51639 24.4689 8.57759 23.8727Z" fill="#898989" stroke="#898989" stroke-width="2.02054" stroke-linecap="round" stroke-linejoin="round"/>
</svg>
