<svg width="42" height="42" viewBox="0 0 42 42" fill="none" xmlns="http://www.w3.org/2000/svg">
<path d="M10.7676 20.1024V27.6108C10.7676 28.5408 11.5215 29.2946 12.4514 29.2946H15.819C16.3851 29.3233 16.8599 28.872 16.8599 28.3051V23.3977C16.8599 22.472 17.6071 21.7199 18.5328 21.714L23.3203 21.683C24.2545 21.6769 25.015 22.4325 25.015 23.3667V28.388C25.015 28.8887 25.4209 29.2946 25.9217 29.2946H29.2892C30.2192 29.2946 30.973 28.5408 30.973 27.6108V20.1024C30.973 19.6071 30.755 19.1369 30.3769 18.817L21.9579 11.6933C21.3301 11.1621 20.4105 11.1621 19.7827 11.6933L11.3638 18.817C10.9857 19.1369 10.7676 19.6071 10.7676 20.1024Z" fill="#898989" stroke="#898989" stroke-width="2.3573" stroke-linecap="round" stroke-linejoin="round"/>
</svg>
