<svg width="42" height="41" viewBox="0 0 42 41" fill="none" xmlns="http://www.w3.org/2000/svg">
<g clip-path="url(#clip0_1_534)">
<path d="M26.4223 21.0934C29.2281 21.0934 31.5027 18.8188 31.5027 16.013C31.5027 13.2072 29.2281 10.9326 26.4223 10.9326C23.6165 10.9326 21.3419 13.2072 21.3419 16.013M26.4223 21.0934C23.6165 21.0934 21.3419 18.8188 21.3419 16.013M26.4223 21.0934L15.5569 30.7363C15.0757 31.1634 14.4546 31.3993 13.8112 31.3993V31.3993C12.3586 31.3993 11.1811 30.2113 11.1811 28.7588V28.7588C11.1811 28.1238 11.4096 27.5061 11.8247 27.0257L21.3419 16.013" stroke="#898989" stroke-width="1.68378"/>
</g>
<defs>
<clipPath id="clip0_1_534">
<rect width="23.573" height="23.573" fill="white" transform="translate(9.49731 9.24872)"/>
</clipPath>
</defs>
</svg>
