<svg width="42" height="42" viewBox="0 0 42 42" fill="none" xmlns="http://www.w3.org/2000/svg">
<path d="M22.9881 14.4921L21.1243 16.298L19.2605 14.4921C17.3061 12.5984 14.171 12.703 12.3471 14.7226C10.5774 16.6824 10.3337 19.6178 11.9363 21.7165C12.1332 21.9744 12.3268 22.2214 12.5111 22.4475C13.6776 23.8784 16.2226 26.3774 17.4977 27.7185C18.4398 28.7093 19.2866 29.5356 19.9246 30.1375C20.5983 30.7731 21.6383 30.7592 22.3133 30.125C23.4896 29.0196 25.2935 27.2979 26.5642 25.9615C27.8394 24.6204 28.5711 23.8784 29.7375 22.4475C29.9218 22.2214 30.1154 21.9744 30.3124 21.7165C31.9149 19.6178 31.6713 16.6824 29.9015 14.7226C28.0777 12.703 24.9425 12.5984 22.9881 14.4921Z" fill="#898989" stroke="#898989" stroke-width="2.02054" stroke-linecap="round" stroke-linejoin="round"/>
</svg>
