<svg width="42" height="42" viewBox="0 0 42 42" fill="none" xmlns="http://www.w3.org/2000/svg">
<path d="M25.6581 13.378C25.8668 13.8215 26.3956 14.0119 26.8391 13.8031C27.2827 13.5944 27.473 13.0656 27.2643 12.6221L25.6581 13.378ZM14.7291 17.1006C15.6052 16.9585 15.6053 16.9589 15.6053 16.9592C15.6053 16.9593 15.6054 16.9597 15.6054 16.9599C15.6055 16.9602 15.6055 16.9605 15.6055 16.9606C15.6056 16.9609 15.6056 16.9608 15.6055 16.9603C15.6053 16.9592 15.6049 16.9566 15.6043 16.9523C15.6031 16.9438 15.601 16.9289 15.5983 16.9082C15.593 16.8667 15.5855 16.8018 15.5779 16.717C15.5628 16.5469 15.5479 16.2988 15.5506 15.9992C15.5561 15.3939 15.6332 14.6108 15.9026 13.8448C16.1696 13.0856 16.617 12.3645 17.357 11.8282C18.0947 11.2934 19.1986 10.8876 20.8757 10.8876V9.11249C18.9034 9.11249 17.4142 9.59428 16.3152 10.3909C15.2184 11.1859 14.5853 12.2399 14.228 13.2559C13.8731 14.265 13.7821 15.2571 13.7755 15.9832C13.7722 16.3493 13.7903 16.6559 13.8097 16.8741C13.8194 16.9834 13.8295 17.0711 13.8375 17.1336C13.8415 17.1649 13.845 17.1899 13.8477 17.2083C13.849 17.2174 13.8502 17.2249 13.8511 17.2307C13.8515 17.2336 13.8519 17.2361 13.8522 17.2381C13.8524 17.2391 13.8525 17.24 13.8526 17.2408C13.8527 17.2412 13.8528 17.2417 13.8528 17.2419C13.8529 17.2424 13.853 17.2428 14.7291 17.1006ZM20.8757 10.8876C22.3806 10.8876 23.4224 11.2146 24.1506 11.6648C24.8767 12.1137 25.3488 12.7208 25.6581 13.378L27.2643 12.6221C26.8328 11.7054 26.1477 10.8125 25.0841 10.1549C24.0224 9.49855 22.6419 9.11249 20.8757 9.11249V10.8876Z" fill="#898989"/>
<path d="M27.0887 17.5444H14.6627C13.1921 17.5444 12 18.7366 12 20.2072V29.5267C12 30.9973 13.1921 32.1894 14.6627 32.1894H27.0887C28.5593 32.1894 29.7515 30.9973 29.7515 29.5267V20.2072C29.7515 18.7366 28.5593 17.5444 27.0887 17.5444Z" stroke="#898989" stroke-width="1.77515"/>
<circle cx="20.8757" cy="25.0888" r="2.66272" stroke="#898989" stroke-width="1.77515"/>
</svg>
