<svg width="42" height="42" viewBox="0 0 42 42" fill="none" xmlns="http://www.w3.org/2000/svg">
<circle cx="21.1297" cy="21.1247" r="1.96441" fill="#898989"/>
<path d="M24.5295 16.6382C25.7832 17.638 26.5865 19.1785 26.5865 20.9066C26.5865 22.6348 25.7832 24.1753 24.5295 25.1751M17.7301 25.1751C16.4764 24.1753 15.6731 22.6348 15.6731 20.9066C15.6731 19.265 16.398 17.7926 17.5453 16.7923" stroke="#898989" stroke-width="1.96441" stroke-linecap="round" stroke-linejoin="round"/>
<path d="M27.2493 13.2669C29.5058 15.0563 30.9518 17.8134 30.9518 20.9063C30.9518 23.9992 29.5058 26.7563 27.2493 28.5457M15.0102 28.5457C12.7537 26.7563 11.3077 23.9992 11.3077 20.9063C11.3077 17.9682 12.6126 15.3332 14.6776 13.5428" stroke="#898989" stroke-width="1.96441" stroke-linecap="round" stroke-linejoin="round"/>
</svg>
