<svg width="41" height="41" viewBox="0 0 41 41" fill="none" xmlns="http://www.w3.org/2000/svg">
<path d="M19.5806 11.3986C19.9266 10.5896 21.0734 10.5896 21.4194 11.3986L23.361 15.9385C23.5057 16.2767 23.8243 16.5082 24.1906 16.5413L29.1084 16.9849C29.9847 17.064 30.3391 18.1547 29.6766 18.7338L25.9589 21.9833C25.6819 22.2254 25.5602 22.5999 25.642 22.9586L26.7397 27.7727C26.9353 28.6306 26.0075 29.3047 25.252 28.8536L21.0127 26.3219C20.6969 26.1333 20.3031 26.1333 19.9873 26.3219L15.748 28.8536C14.9925 29.3047 14.0647 28.6306 14.2603 27.7727L15.358 22.9586C15.4398 22.5999 15.3181 22.2254 15.0411 21.9833L11.3234 18.7338C10.6609 18.1547 11.0153 17.064 11.8916 16.9849L16.8094 16.5413C17.1757 16.5082 17.4943 16.2767 17.639 15.9385L19.5806 11.3986Z" stroke="#898989" stroke-width="2"/>
</svg>
