<svg width="42" height="42" viewBox="0 0 42 42" fill="none" xmlns="http://www.w3.org/2000/svg">
<path d="M21.0733 27.6669C19.1098 27.6535 17.3143 27.0351 15.754 26.1631M21.0733 27.6669V30.7487M21.0733 27.6669C23.0922 27.6808 24.9247 27.0525 26.503 26.1631M32.5378 20.5087C32.5378 20.5087 31.8926 21.502 30.734 22.7487M9.50987 20.3512C9.50987 20.3512 10.2154 21.4244 11.469 22.7487M11.469 22.7487L8.75403 25.4637M11.469 22.7487C12.534 23.8735 13.9944 25.1796 15.754 26.1631M15.754 26.1631L13.754 29.2487M26.503 26.1631L28.254 29.2487M26.503 26.1631C28.2593 25.1734 29.7008 23.8603 30.734 22.7487M30.734 22.7487L33.254 25.2687" stroke="#898989" stroke-width="2" stroke-linecap="round"/>
</svg>
