<svg width="41" height="41" viewBox="0 0 41 41" fill="none" xmlns="http://www.w3.org/2000/svg">
<path d="M23.7406 13.892C23.7406 15.7519 22.2329 17.2596 20.373 17.2596C18.5131 17.2596 17.0054 15.7519 17.0054 13.892C17.0054 12.0322 18.5131 10.5245 20.373 10.5245C22.2329 10.5245 23.7406 12.0322 23.7406 13.892Z" fill="#898989" stroke="#898989" stroke-width="2.02054"/>
<path d="M13.4536 22.9951L14.2034 22.4952C16.0304 21.2772 18.1771 20.6272 20.373 20.6272C22.5688 20.6272 24.7155 21.2772 26.5425 22.4952L27.2923 22.9951C28.2292 23.6196 28.7919 24.6711 28.7919 25.7971V27.4746C28.7919 28.3425 28.0883 29.0461 27.2203 29.0461H20.373H13.5256C12.6576 29.0461 11.954 28.3425 11.954 27.4746V25.7971C11.954 24.6711 12.5168 23.6196 13.4536 22.9951Z" fill="#898989" stroke="#898989" stroke-width="2.02054" stroke-linecap="round" stroke-linejoin="round"/>
</svg>
