<svg width="42" height="41" viewBox="0 0 42 41" fill="none" xmlns="http://www.w3.org/2000/svg">
<g clip-path="url(#clip0_1_355)">
<path d="M13.5261 24.2416C10.6407 22.7989 10.5504 18.7651 13.2556 17.1605L13.5261 17.0131L22.2585 12.6468C22.7062 12.4231 23.2328 12.748 23.2332 13.2484L23.2332 28.0052C23.2332 28.4747 22.7695 28.791 22.3425 28.6439L22.2585 28.6078L13.5261 24.2416Z" stroke="#898989" stroke-width="2.02054"/>
<path d="M27.6109 25.6784C28.3997 25.4632 29.1291 24.9859 29.7103 24.2905C30.5223 23.3189 30.9785 22.0011 30.9785 20.627C30.9785 19.253 30.5223 17.9352 29.7103 16.9636C29.1291 16.2681 28.3997 15.7908 27.6109 15.5757" stroke="#898989" stroke-width="1.68378" stroke-linecap="round"/>
<path d="M26.769 20.1158C26.769 19.9332 26.9224 19.7794 27.0911 19.8492C27.1933 19.8915 27.2861 19.9536 27.3643 20.0317C27.4424 20.1099 27.5045 20.2027 27.5468 20.3049C27.5891 20.407 27.6108 20.5165 27.6108 20.627C27.6108 20.7376 27.5891 20.8471 27.5468 20.9492C27.5045 21.0514 27.4424 21.1442 27.3643 21.2223C27.2861 21.3005 27.1933 21.3625 27.0911 21.4048C26.9224 21.4747 26.769 21.3209 26.769 21.1383L26.769 20.627L26.769 20.1158Z" fill="#898989" stroke="#898989" stroke-width="0.841892"/>
</g>
<defs>
<clipPath id="clip0_1_355">
<rect width="23.573" height="23.573" fill="white" transform="translate(9.08923 8.84079)"/>
</clipPath>
</defs>
</svg>
