<svg width="24" height="24" viewBox="0 0 24 24" fill="none" xmlns="http://www.w3.org/2000/svg">
<circle cx="12" cy="12" r="1.16667" fill="#898989"/>
<path d="M14.0191 9.33554C14.7636 9.92932 15.2408 10.8442 15.2408 11.8706C15.2408 12.8969 14.7636 13.8118 14.0191 14.4056M9.98092 14.4056C9.23639 13.8118 8.75928 12.8969 8.75928 11.8706C8.75928 10.8956 9.18982 10.0212 9.87116 9.42709" stroke="#898989" stroke-width="1.16667" stroke-linecap="round" stroke-linejoin="round"/>
<path d="M15.6343 7.33334C16.9745 8.39605 17.8333 10.0335 17.8333 11.8704C17.8333 13.7073 16.9745 15.3447 15.6343 16.4074M8.36558 16.4074C7.02543 15.3447 6.16663 13.7073 6.16663 11.8704C6.16663 10.1254 6.94161 8.56048 8.16801 7.4972" stroke="#898989" stroke-width="1.16667" stroke-linecap="round" stroke-linejoin="round"/>
</svg>
