<svg width="24" height="24" viewBox="0 0 24 24" fill="none" xmlns="http://www.w3.org/2000/svg">
<path d="M6 7.49998V7.49998C6.93814 7.49998 7.81527 7.96505 8.34168 8.74158L8.83796 9.47367L9.50694 10.4605M17.0741 15.3947H14.1492C13.365 15.3947 12.612 15.0876 12.0515 14.5393L11.5 13.9999M17.0741 15.3947L15 17.4999M17.0741 15.3947L15 13.2894" stroke="#898989" stroke-width="1.2" stroke-linecap="round" stroke-linejoin="round"/>
<path d="M6 16.5999V16.5999C6.94047 16.5999 7.82216 16.1425 8.36364 15.3735L12.0297 10.1675C12.5916 9.3695 13.5066 8.89475 14.4825 8.89475H17.0741M17.0741 8.89475L15 6.78949M17.0741 8.89475L15 11" stroke="#898989" stroke-width="1.2" stroke-linecap="round" stroke-linejoin="round"/>
</svg>
