<svg width="24" height="24" viewBox="0 0 24 24" fill="none" xmlns="http://www.w3.org/2000/svg">
<rect width="12" height="12" rx="1.8" transform="matrix(1 0 0 -1 6 18.8)" stroke="#898989" stroke-width="1.2" stroke-linejoin="round"/>
<path d="M12.2345 13.3529V10.3749C12.2345 10.1678 12.4024 9.99994 12.6095 9.99994H14M12.2345 13.3529V15.3745C12.2345 15.7097 11.9956 15.9994 11.6603 15.9999C10.9983 16.0009 10 15.8104 10 14.6523C10 12.9197 12.2345 13.3529 12.2345 13.3529Z" stroke="#898989" stroke-width="0.9" stroke-linecap="round" stroke-linejoin="round"/>
<path d="M7.19995 6.79993H16.8V6.79993C16.8 5.80581 15.9941 4.99993 15 4.99993H8.99995C8.00584 4.99993 7.19995 5.80581 7.19995 6.79993V6.79993Z" stroke="#898989" stroke-width="0.9" stroke-linejoin="round"/>
</svg>
